<mxfile host="app.diagrams.net" modified="2023-09-06T21:40:47.965Z" agent="Mozilla/5.0 (Windows NT 10.0; Win64; x64; rv:109.0) Gecko/20100101 Firefox/117.0" etag="Qxc_k0gxFgRdYxH_G0Y5" version="21.7.1" type="github">
  <diagram name="Page-1" id="zNxV-0alTCsLAuEI0Rdv">
    <mxGraphModel dx="703" dy="378" grid="1" gridSize="10" guides="1" tooltips="1" connect="1" arrows="1" fold="1" page="1" pageScale="1" pageWidth="850" pageHeight="1100" math="0" shadow="0">
      <root>
        <mxCell id="0" />
        <mxCell id="1" parent="0" />
        <mxCell id="2Cr21jdTOKF3VbtcVylo-27" style="edgeStyle=orthogonalEdgeStyle;rounded=0;orthogonalLoop=1;jettySize=auto;html=1;exitX=0.5;exitY=1;exitDx=0;exitDy=0;entryX=0.5;entryY=0;entryDx=0;entryDy=0;" parent="1" source="2Cr21jdTOKF3VbtcVylo-1" target="2Cr21jdTOKF3VbtcVylo-2" edge="1">
          <mxGeometry relative="1" as="geometry" />
        </mxCell>
        <mxCell id="2Cr21jdTOKF3VbtcVylo-1" value="LED 1" style="rounded=0;whiteSpace=wrap;html=1;fillColor=#d5e8d4;strokeColor=#000000;" parent="1" vertex="1">
          <mxGeometry x="410" y="340" width="60" height="60" as="geometry" />
        </mxCell>
        <mxCell id="2Cr21jdTOKF3VbtcVylo-28" style="edgeStyle=orthogonalEdgeStyle;rounded=0;orthogonalLoop=1;jettySize=auto;html=1;exitX=0.5;exitY=1;exitDx=0;exitDy=0;entryX=0.5;entryY=0;entryDx=0;entryDy=0;" parent="1" source="2Cr21jdTOKF3VbtcVylo-2" target="2Cr21jdTOKF3VbtcVylo-3" edge="1">
          <mxGeometry relative="1" as="geometry" />
        </mxCell>
        <mxCell id="2Cr21jdTOKF3VbtcVylo-2" value="&lt;div&gt;LED 2&lt;/div&gt;" style="rounded=0;whiteSpace=wrap;html=1;fillColor=#dae8fc;strokeColor=#000000;" parent="1" vertex="1">
          <mxGeometry x="410" y="450" width="60" height="60" as="geometry" />
        </mxCell>
        <mxCell id="2Cr21jdTOKF3VbtcVylo-3" value="LED 3" style="rounded=0;whiteSpace=wrap;html=1;fillColor=#f8cecc;strokeColor=#000000;" parent="1" vertex="1">
          <mxGeometry x="410" y="560" width="60" height="60" as="geometry" />
        </mxCell>
        <mxCell id="2Cr21jdTOKF3VbtcVylo-4" value="255" style="rounded=0;whiteSpace=wrap;html=1;fillColor=#d5e8d4;strokeColor=#000000;" parent="1" vertex="1">
          <mxGeometry x="480" y="300" width="50" height="30" as="geometry" />
        </mxCell>
        <mxCell id="2Cr21jdTOKF3VbtcVylo-5" value="0" style="rounded=0;whiteSpace=wrap;html=1;fillColor=#d5e8d4;strokeColor=#000000;" parent="1" vertex="1">
          <mxGeometry x="530" y="300" width="50" height="30" as="geometry" />
        </mxCell>
        <mxCell id="2Cr21jdTOKF3VbtcVylo-6" value="0" style="rounded=0;whiteSpace=wrap;html=1;fillColor=#d5e8d4;strokeColor=#000000;" parent="1" vertex="1">
          <mxGeometry x="580" y="300" width="50" height="30" as="geometry" />
        </mxCell>
        <mxCell id="2Cr21jdTOKF3VbtcVylo-8" value="0" style="rounded=0;whiteSpace=wrap;html=1;fillColor=#dae8fc;strokeColor=#000000;" parent="1" vertex="1">
          <mxGeometry x="630" y="300" width="50" height="30" as="geometry" />
        </mxCell>
        <mxCell id="2Cr21jdTOKF3VbtcVylo-9" value="255" style="rounded=0;whiteSpace=wrap;html=1;fillColor=#dae8fc;strokeColor=#000000;" parent="1" vertex="1">
          <mxGeometry x="680" y="300" width="50" height="30" as="geometry" />
        </mxCell>
        <mxCell id="2Cr21jdTOKF3VbtcVylo-10" value="0" style="rounded=0;whiteSpace=wrap;html=1;fillColor=#dae8fc;strokeColor=#000000;" parent="1" vertex="1">
          <mxGeometry x="730" y="300" width="50" height="30" as="geometry" />
        </mxCell>
        <mxCell id="2Cr21jdTOKF3VbtcVylo-13" value="0" style="rounded=0;whiteSpace=wrap;html=1;fillColor=#f8cecc;strokeColor=#000000;" parent="1" vertex="1">
          <mxGeometry x="780" y="300" width="50" height="30" as="geometry" />
        </mxCell>
        <mxCell id="2Cr21jdTOKF3VbtcVylo-14" value="0" style="rounded=0;whiteSpace=wrap;html=1;fillColor=#f8cecc;strokeColor=#000000;" parent="1" vertex="1">
          <mxGeometry x="830" y="300" width="50" height="30" as="geometry" />
        </mxCell>
        <mxCell id="2Cr21jdTOKF3VbtcVylo-15" value="255" style="rounded=0;whiteSpace=wrap;html=1;fillColor=#f8cecc;strokeColor=#000000;" parent="1" vertex="1">
          <mxGeometry x="880" y="300" width="50" height="30" as="geometry" />
        </mxCell>
        <mxCell id="2Cr21jdTOKF3VbtcVylo-22" value="Pixel 1 Data" style="rounded=0;whiteSpace=wrap;html=1;" parent="1" vertex="1">
          <mxGeometry x="320" y="840" width="150" height="30" as="geometry" />
        </mxCell>
        <mxCell id="2Cr21jdTOKF3VbtcVylo-23" value="Pixel 2 Data" style="rounded=0;whiteSpace=wrap;html=1;" parent="1" vertex="1">
          <mxGeometry x="470" y="840" width="150" height="30" as="geometry" />
        </mxCell>
        <mxCell id="2Cr21jdTOKF3VbtcVylo-24" value="Pixel 3 Data" style="rounded=0;whiteSpace=wrap;html=1;" parent="1" vertex="1">
          <mxGeometry x="620" y="840" width="150" height="30" as="geometry" />
        </mxCell>
        <mxCell id="2Cr21jdTOKF3VbtcVylo-29" value="0" style="rounded=0;whiteSpace=wrap;html=1;fillColor=#dae8fc;strokeColor=#000000;" parent="1" vertex="1">
          <mxGeometry x="480" y="410" width="50" height="30" as="geometry" />
        </mxCell>
        <mxCell id="2Cr21jdTOKF3VbtcVylo-30" value="255" style="rounded=0;whiteSpace=wrap;html=1;fillColor=#dae8fc;strokeColor=#000000;" parent="1" vertex="1">
          <mxGeometry x="530" y="410" width="50" height="30" as="geometry" />
        </mxCell>
        <mxCell id="2Cr21jdTOKF3VbtcVylo-31" value="0" style="rounded=0;whiteSpace=wrap;html=1;fillColor=#dae8fc;strokeColor=#000000;" parent="1" vertex="1">
          <mxGeometry x="580" y="410" width="50" height="30" as="geometry" />
        </mxCell>
        <mxCell id="2Cr21jdTOKF3VbtcVylo-32" value="0" style="rounded=0;whiteSpace=wrap;html=1;fillColor=#f8cecc;strokeColor=#000000;" parent="1" vertex="1">
          <mxGeometry x="630" y="410" width="50" height="30" as="geometry" />
        </mxCell>
        <mxCell id="2Cr21jdTOKF3VbtcVylo-33" value="0" style="rounded=0;whiteSpace=wrap;html=1;fillColor=#f8cecc;strokeColor=#000000;" parent="1" vertex="1">
          <mxGeometry x="680" y="410" width="50" height="30" as="geometry" />
        </mxCell>
        <mxCell id="2Cr21jdTOKF3VbtcVylo-34" value="255" style="rounded=0;whiteSpace=wrap;html=1;fillColor=#f8cecc;strokeColor=#000000;" parent="1" vertex="1">
          <mxGeometry x="730" y="410" width="50" height="30" as="geometry" />
        </mxCell>
        <mxCell id="2Cr21jdTOKF3VbtcVylo-41" value="0" style="rounded=0;whiteSpace=wrap;html=1;fillColor=#f8cecc;strokeColor=#000000;" parent="1" vertex="1">
          <mxGeometry x="480" y="520" width="50" height="30" as="geometry" />
        </mxCell>
        <mxCell id="2Cr21jdTOKF3VbtcVylo-42" value="0" style="rounded=0;whiteSpace=wrap;html=1;fillColor=#f8cecc;strokeColor=#000000;" parent="1" vertex="1">
          <mxGeometry x="530" y="520" width="50" height="30" as="geometry" />
        </mxCell>
        <mxCell id="2Cr21jdTOKF3VbtcVylo-43" value="255" style="rounded=0;whiteSpace=wrap;html=1;fillColor=#f8cecc;strokeColor=#000000;" parent="1" vertex="1">
          <mxGeometry x="580" y="520" width="50" height="30" as="geometry" />
        </mxCell>
        <mxCell id="T_s2m_UP18mRJNaOhsuC-1" style="edgeStyle=orthogonalEdgeStyle;rounded=0;orthogonalLoop=1;jettySize=auto;html=1;exitX=0.5;exitY=1;exitDx=0;exitDy=0;entryX=0.5;entryY=0;entryDx=0;entryDy=0;" edge="1" parent="1" source="2Cr21jdTOKF3VbtcVylo-44" target="2Cr21jdTOKF3VbtcVylo-1">
          <mxGeometry relative="1" as="geometry" />
        </mxCell>
        <mxCell id="2Cr21jdTOKF3VbtcVylo-44" value="PIC18-Q71" style="rounded=0;whiteSpace=wrap;html=1;" parent="1" vertex="1">
          <mxGeometry x="365" y="230" width="150" height="60" as="geometry" />
        </mxCell>
        <mxCell id="T_s2m_UP18mRJNaOhsuC-3" value="" style="shape=curlyBracket;whiteSpace=wrap;html=1;rounded=1;labelPosition=left;verticalLabelPosition=middle;align=right;verticalAlign=middle;" vertex="1" parent="1">
          <mxGeometry x="470" y="297.5" width="10" height="35" as="geometry" />
        </mxCell>
        <mxCell id="T_s2m_UP18mRJNaOhsuC-4" value="" style="endArrow=none;html=1;rounded=0;entryX=0.1;entryY=0.5;entryDx=0;entryDy=0;entryPerimeter=0;" edge="1" parent="1" target="T_s2m_UP18mRJNaOhsuC-3">
          <mxGeometry width="50" height="50" relative="1" as="geometry">
            <mxPoint x="440" y="315" as="sourcePoint" />
            <mxPoint x="420" y="350" as="targetPoint" />
          </mxGeometry>
        </mxCell>
        <mxCell id="T_s2m_UP18mRJNaOhsuC-9" value="" style="shape=curlyBracket;whiteSpace=wrap;html=1;rounded=1;labelPosition=left;verticalLabelPosition=middle;align=right;verticalAlign=middle;" vertex="1" parent="1">
          <mxGeometry x="470" y="407.5" width="10" height="35" as="geometry" />
        </mxCell>
        <mxCell id="T_s2m_UP18mRJNaOhsuC-10" value="" style="endArrow=none;html=1;rounded=0;entryX=0.1;entryY=0.5;entryDx=0;entryDy=0;entryPerimeter=0;" edge="1" parent="1" target="T_s2m_UP18mRJNaOhsuC-9">
          <mxGeometry width="50" height="50" relative="1" as="geometry">
            <mxPoint x="440" y="425" as="sourcePoint" />
            <mxPoint x="420" y="460" as="targetPoint" />
          </mxGeometry>
        </mxCell>
        <mxCell id="T_s2m_UP18mRJNaOhsuC-11" value="" style="shape=curlyBracket;whiteSpace=wrap;html=1;rounded=1;labelPosition=left;verticalLabelPosition=middle;align=right;verticalAlign=middle;" vertex="1" parent="1">
          <mxGeometry x="470" y="517.5" width="10" height="35" as="geometry" />
        </mxCell>
        <mxCell id="T_s2m_UP18mRJNaOhsuC-12" value="" style="endArrow=none;html=1;rounded=0;entryX=0.1;entryY=0.5;entryDx=0;entryDy=0;entryPerimeter=0;" edge="1" parent="1" target="T_s2m_UP18mRJNaOhsuC-11">
          <mxGeometry width="50" height="50" relative="1" as="geometry">
            <mxPoint x="440" y="535" as="sourcePoint" />
            <mxPoint x="420" y="570" as="targetPoint" />
          </mxGeometry>
        </mxCell>
      </root>
    </mxGraphModel>
  </diagram>
</mxfile>
